<svg width="28" height="28" viewBox="0 0 28 28" fill="none" xmlns="http://www.w3.org/2000/svg">
<path d="M12.3673 16.0987L9.82982 13.5612C9.61593 13.3473 9.34876 13.2454 9.02832 13.2555C8.7071 13.2649 8.43954 13.3765 8.22565 13.5904C8.01176 13.8043 7.90482 14.0765 7.90482 14.407C7.90482 14.7376 8.01176 15.0098 8.22565 15.2237L11.5507 18.5487C11.7645 18.7626 12.0368 18.8695 12.3673 18.8695C12.6979 18.8695 12.9701 18.7626 13.184 18.5487L19.8048 11.9279C20.0187 11.714 20.121 11.4464 20.1117 11.1252C20.1015 10.8048 19.9895 10.5376 19.7757 10.3237C19.5618 10.1098 19.2895 10.0029 18.959 10.0029C18.6284 10.0029 18.3562 10.1098 18.1423 10.3237L12.3673 16.0987ZM14.0007 25.6654C12.3868 25.6654 10.8701 25.3589 9.45065 24.746C8.03121 24.1339 6.79648 23.3029 5.74648 22.2529C4.69648 21.2029 3.86543 19.9681 3.25332 18.5487C2.64043 17.1293 2.33398 15.6126 2.33398 13.9987C2.33398 12.3848 2.64043 10.8681 3.25332 9.4487C3.86543 8.02925 4.69648 6.79453 5.74648 5.74453C6.79648 4.69453 8.03121 3.86309 9.45065 3.2502C10.8701 2.63809 12.3868 2.33203 14.0007 2.33203C15.6145 2.33203 17.1312 2.63809 18.5507 3.2502C19.9701 3.86309 21.2048 4.69453 22.2548 5.74453C23.3048 6.79453 24.1359 8.02925 24.748 9.4487C25.3609 10.8681 25.6673 12.3848 25.6673 13.9987C25.6673 15.6126 25.3609 17.1293 24.748 18.5487C24.1359 19.9681 23.3048 21.2029 22.2548 22.2529C21.2048 23.3029 19.9701 24.1339 18.5507 24.746C17.1312 25.3589 15.6145 25.6654 14.0007 25.6654ZM14.0007 23.332C16.5868 23.332 18.789 22.4232 20.6075 20.6055C22.4252 18.7871 23.334 16.5848 23.334 13.9987C23.334 11.4126 22.4252 9.21031 20.6075 7.39186C18.789 5.5742 16.5868 4.66536 14.0007 4.66536C11.4145 4.66536 9.21265 5.5742 7.39498 7.39186C5.57654 9.21031 4.66732 11.4126 4.66732 13.9987C4.66732 16.5848 5.57654 18.7871 7.39498 20.6055C9.21265 22.4232 11.4145 23.332 14.0007 23.332Z" fill="black"/>
</svg>
