<svg width="23" height="24" viewBox="0 0 23 24" fill="none" xmlns="http://www.w3.org/2000/svg">
<path fill-rule="evenodd" clip-rule="evenodd" d="M8 4C7.73478 4 7.48043 4.10536 7.29289 4.29289C7.10536 4.48043 7 4.73478 7 5V6H6.5C6.10218 6 5.72064 6.15804 5.43934 6.43934C5.15804 6.72064 5 7.10218 5 7.5V17.5C5 17.8978 5.15804 18.2794 5.43934 18.5607C5.72064 18.842 6.10218 19 6.5 19H17.5C17.8978 19 18.2794 18.842 18.5607 18.5607C18.842 18.2794 19 17.8978 19 17.5V7.5C19 7.10218 18.842 6.72064 18.5607 6.43934C18.2794 6.15804 17.8978 6 17.5 6H17V5C17 4.73478 16.8946 4.48043 16.7071 4.29289C16.5196 4.10536 16.2652 4 16 4C15.7348 4 15.4804 4.10536 15.2929 4.29289C15.1054 4.48043 15 4.73478 15 5V6H9V5C9 4.73478 8.89464 4.48043 8.70711 4.29289C8.51957 4.10536 8.26522 4 8 4ZM7 10V17H17V10H7ZM15.5 14C15.5 14.3978 15.342 14.7794 15.0607 15.0607C14.7794 15.342 14.3978 15.5 14 15.5C13.6022 15.5 13.2206 15.342 12.9393 15.0607C12.658 14.7794 12.5 14.3978 12.5 14C12.5 13.6022 12.658 13.2206 12.9393 12.9393C13.2206 12.658 13.6022 12.5 14 12.5C14.3978 12.5 14.7794 12.658 15.0607 12.9393C15.342 13.2206 15.5 13.6022 15.5 14Z" fill="black" fill-opacity="0.85"/>
</svg>
