<svg width="33" height="32" viewBox="0 0 33 32" fill="none" xmlns="http://www.w3.org/2000/svg">
<circle cx="16.5" cy="16" r="14" fill="black"/>
<path d="M21.5285 15.6624L19.7339 17.457C19.4259 17.765 19.0602 18.0094 18.6578 18.1761C18.2553 18.3428 17.824 18.4286 17.3884 18.4286C16.9528 18.4286 16.5215 18.3428 16.1191 18.1761C15.7166 18.0094 15.351 17.765 15.043 17.457C14.9671 17.3938 14.9051 17.3155 14.8612 17.227C14.8172 17.1385 14.7922 17.0419 14.7877 16.9432C14.7832 16.8445 14.7993 16.7459 14.835 16.6538C14.8707 16.5617 14.9253 16.478 14.9951 16.4082C15.065 16.3383 15.1486 16.2838 15.2407 16.2481C15.3328 16.2124 15.4314 16.1962 15.5301 16.2008C15.6288 16.2053 15.7254 16.2303 15.8139 16.2742C15.9024 16.3182 15.9807 16.3801 16.0439 16.4561C16.401 16.8094 16.8831 17.0076 17.3855 17.0076C17.8878 17.0076 18.3699 16.8094 18.727 16.4561L20.5216 14.6614C20.8774 14.3056 21.0773 13.8231 21.0773 13.3199C21.0773 12.8167 20.8774 12.3342 20.5216 11.9784C20.1658 11.6226 19.6833 11.4227 19.1801 11.4227C18.6769 11.4227 18.1944 11.6226 17.8386 11.9784L17.27 12.5529C17.1364 12.6864 16.9554 12.7614 16.7665 12.7614C16.5777 12.7614 16.3966 12.6864 16.2631 12.5529C16.1296 12.4194 16.0546 12.2383 16.0546 12.0495C16.0546 11.8606 16.1296 11.6795 16.2631 11.546L16.8376 10.9715C17.4597 10.3495 18.3033 10 19.183 10C20.0628 10 20.9064 10.3495 21.5285 10.9715C22.1505 11.5936 22.5 12.4372 22.5 13.317C22.5 14.1967 22.1505 15.0403 21.5285 15.6624ZM15.73 19.4471L15.1614 20.0216C14.8056 20.3774 14.3231 20.5773 13.8199 20.5773C13.3167 20.5773 12.8342 20.3774 12.4784 20.0216C12.1226 19.6658 11.9227 19.1833 11.9227 18.6801C11.9227 18.1769 12.1226 17.6944 12.4784 17.3386L14.273 15.5439C14.6301 15.1906 15.1122 14.9924 15.6145 14.9924C16.1169 14.9924 16.599 15.1906 16.9561 15.5439C17.0923 15.6574 17.2661 15.7158 17.4432 15.7077C17.6203 15.6996 17.788 15.6256 17.9133 15.5002C18.0387 15.3749 18.1127 15.2072 18.1208 15.0301C18.1288 14.853 18.0704 14.6792 17.957 14.543C17.6494 14.2342 17.2839 13.9893 16.8814 13.8221C16.4789 13.655 16.0474 13.5689 15.6116 13.5689C15.1758 13.5689 14.7442 13.655 14.3417 13.8221C13.9393 13.9893 13.5737 14.2342 13.2661 14.543L11.4715 16.3376C10.8495 16.9597 10.5 17.8033 10.5 18.683C10.5 19.5628 10.8495 20.4064 11.4715 21.0285C12.0936 21.6505 12.9372 22 13.817 22C14.6967 22 15.5403 21.6505 16.1624 21.0285L16.7369 20.454C16.8704 20.3204 16.9454 20.1394 16.9454 19.9505C16.9454 19.7617 16.8704 19.5806 16.7369 19.4471C16.6034 19.3136 16.4223 19.2386 16.2335 19.2386C16.0446 19.2386 15.8636 19.3136 15.73 19.4471Z" fill="white"/>
</svg>
