<svg width="42" height="42" viewBox="0 0 42 42" fill="none" xmlns="http://www.w3.org/2000/svg">
<path d="M20.9995 28C20.5037 28 20.0883 27.832 19.7535 27.496C19.4175 27.1612 19.2495 26.7459 19.2495 26.25V8.44377L17.6745 10.0188C17.3537 10.3396 16.9529 10.5 16.4723 10.5C15.9904 10.5 15.5745 10.325 15.2245 9.97502C14.9037 9.62502 14.7433 9.20911 14.7433 8.72727C14.7433 8.24661 14.9037 7.84586 15.2245 7.52502L19.7745 2.97502C19.9203 2.82919 20.1029 2.71252 20.3223 2.62502C20.5404 2.53752 20.7662 2.49377 20.9995 2.49377C21.2328 2.49377 21.4592 2.53752 21.6785 2.62502C21.8967 2.71252 22.0787 2.82919 22.2245 2.97502L26.7745 7.52502C27.1245 7.87502 27.2995 8.29794 27.2995 8.79377C27.2995 9.28961 27.1245 9.69794 26.7745 10.0188C26.4245 10.3396 26.0092 10.5 25.5285 10.5C25.0467 10.5 24.6453 10.3396 24.3245 10.0188L22.7495 8.44377V26.25C22.7495 26.7459 22.5821 27.1612 22.2473 27.496C21.9113 27.832 21.4953 28 20.9995 28ZM10.4995 40.25C9.53701 40.25 8.71334 39.9076 8.02851 39.2228C7.34251 38.5368 6.99951 37.7125 6.99951 36.75V17.5C6.99951 16.5375 7.34251 15.7133 8.02851 15.0273C8.71334 14.3424 9.53701 14 10.4995 14H13.9995C14.4953 14 14.9113 14.1674 15.2473 14.5023C15.5821 14.8383 15.7495 15.2542 15.7495 15.75C15.7495 16.2459 15.5821 16.6612 15.2473 16.996C14.9113 17.332 14.4953 17.5 13.9995 17.5H10.4995V36.75H31.4995V17.5H27.9995C27.5037 17.5 27.0883 17.332 26.7535 16.996C26.4175 16.6612 26.2495 16.2459 26.2495 15.75C26.2495 15.2542 26.4175 14.8383 26.7535 14.5023C27.0883 14.1674 27.5037 14 27.9995 14H31.4995C32.462 14 33.2863 14.3424 33.9723 15.0273C34.6571 15.7133 34.9995 16.5375 34.9995 17.5V36.75C34.9995 37.7125 34.6571 38.5368 33.9723 39.2228C33.2863 39.9076 32.462 40.25 31.4995 40.25H10.4995Z" fill="#3073E8"/>
</svg>
