<svg width="16" height="16" viewBox="0 0 16 16" fill="none" xmlns="http://www.w3.org/2000/svg">
<g clip-path="url(#clip0_584_6700)">
<path fill-rule="evenodd" clip-rule="evenodd" d="M8 16.0026C12.4183 16.0026 16 12.4209 16 8.00269C16 3.58441 12.4183 0.00268555 8 0.00268555C3.58172 0.00268555 0 3.58441 0 8.00269C0 12.4209 3.58172 16.0026 8 16.0026ZM6.70996 11.7052C6.70996 10.9595 7.27667 10.4226 7.9925 10.4226C8.72326 10.4226 9.28996 10.9595 9.28996 11.7052C9.28996 12.4509 8.72326 13.0026 7.9925 13.0026C7.27667 13.0026 6.70996 12.4509 6.70996 11.7052ZM7.46502 3.00269H8.53489C8.97368 3.00269 9.31875 3.37771 9.2823 3.81498L8.88821 8.54371C8.86661 8.80285 8.64998 9.00218 8.38994 9.00218H7.61006C7.35002 9.00218 7.13338 8.80286 7.11178 8.54372L6.71761 3.81499C6.68116 3.37772 7.02623 3.00269 7.46502 3.00269Z" fill="#E36563"/>
</g>
<defs>
<clipPath id="clip0_584_6700">
<rect width="16" height="16" fill="white"/>
</clipPath>
</defs>
</svg>
