<svg width="206" height="152" viewBox="0 0 206 152" fill="none" xmlns="http://www.w3.org/2000/svg">
<path d="M157.828 133.592H4.40005C3.70628 133.592 3.04092 133.314 2.55035 132.82C2.05978 132.327 1.78418 131.657 1.78418 130.959V3.45787C1.78418 2.75964 2.05978 2.09001 2.55035 1.59628C3.04092 1.10256 3.70628 0.825188 4.40005 0.825188H186.452C187.146 0.825188 187.811 1.10256 188.301 1.59628C188.792 2.09001 189.068 2.75964 189.068 3.45787V106.718" stroke="black" stroke-width="1.15" stroke-linecap="round" stroke-linejoin="round"/>
<path d="M1.78418 14.4955H188.806" stroke="black" stroke-width="1.15" stroke-linecap="round" stroke-linejoin="round"/>
<path d="M11.4694 11.231C13.0008 11.231 14.2422 9.98158 14.2422 8.44035C14.2422 6.89911 13.0008 5.6497 11.4694 5.6497C9.93797 5.6497 8.69653 6.89911 8.69653 8.44035C8.69653 9.98158 9.93797 11.231 11.4694 11.231Z" fill="black" stroke="black" stroke-width="1.15" stroke-linecap="round" stroke-linejoin="round"/>
<path d="M19.618 11.231C21.1494 11.231 22.3909 9.98158 22.3909 8.44035C22.3909 6.89911 21.1494 5.6497 19.618 5.6497C18.0867 5.6497 16.8452 6.89911 16.8452 8.44035C16.8452 9.98158 18.0867 11.231 19.618 11.231Z" fill="black" stroke="black" stroke-width="1.15" stroke-linecap="round" stroke-linejoin="round"/>
<path d="M27.7662 11.231C29.2976 11.231 30.5391 9.98158 30.5391 8.44035C30.5391 6.89911 29.2976 5.6497 27.7662 5.6497C26.2348 5.6497 24.9934 6.89911 24.9934 8.44035C24.9934 9.98158 26.2348 11.231 27.7662 11.231Z" fill="black" stroke="black" stroke-width="1.15" stroke-linecap="round" stroke-linejoin="round"/>
<path d="M99.0553 92.4362V98.6822H8.6311V21.2089H99.0553V61.1072" stroke="black" stroke-width="1.15" stroke-linecap="round" stroke-linejoin="round"/>
<path d="M175.177 21.2089H112.638V29.3702H175.177V21.2089Z" stroke="black" stroke-width="1.15" stroke-linecap="round" stroke-linejoin="round"/>
<path d="M114.358 43.8238H112.638V35.6624H175.177V43.8238H152.942" stroke="black" stroke-width="1.15" stroke-linecap="round" stroke-linejoin="round"/>
<path d="M160.96 50.1157H175.177V58.2771H167.173" stroke="black" stroke-width="1.15" stroke-linecap="round" stroke-linejoin="round"/>
<path d="M169.887 64.5693H175.178V89.4482" stroke="black" stroke-width="1.15" stroke-linecap="round" stroke-linejoin="round"/>
<path d="M103.117 64.5693H164.524" stroke="black" stroke-width="1.15" stroke-linecap="round" stroke-linejoin="round"/>
<path d="M156.343 126.806H112.638V108.746" stroke="black" stroke-width="1.15" stroke-linecap="round" stroke-linejoin="round"/>
<path d="M8.6311 133.44V106.106H99.0553V133.44" stroke="black" stroke-width="1.15" stroke-linecap="round" stroke-linejoin="round"/>
<path d="M97.9109 63.6675C95.3604 60.4227 90.436 61.693 86.1394 58.4021C81.2216 54.6176 82.9612 39.7693 78.0368 37.8277C73.1124 35.8861 71.0001 40.1576 65.2124 40.4604C59.4248 40.7631 53.3756 32.7663 48.5493 32.4768C43.723 32.1872 36.8825 34.9054 32.7364 45.7718C28.5902 56.6382 23.4762 59.4618 16.8253 62.5618C10.1745 65.6618 8.81421 70.5256 8.6311 70.8481V21.2089H99.0619V61.1072L97.9174 63.6675" fill="black"/>
<path d="M97.9109 63.6675C95.3604 60.4227 90.436 61.693 86.1394 58.4021C81.2216 54.6176 82.9612 39.7693 78.0368 37.8277C73.1124 35.8861 71.0001 40.1576 65.2124 40.4604C59.4248 40.7631 53.3756 32.7663 48.5493 32.4768C43.723 32.1872 36.8825 34.9054 32.7364 45.7718C28.5902 56.6382 23.4762 59.4618 16.8253 62.5618C10.1745 65.6618 8.81421 70.5256 8.6311 70.8481V21.2089H99.0619V61.1072L97.9174 63.6675" stroke="black" stroke-width="1.15" stroke-linecap="round" stroke-linejoin="round"/>
<path d="M133.788 115.136C154.79 115.136 171.816 98.0012 171.816 76.8638C171.816 55.7264 154.79 38.5911 133.788 38.5911C112.785 38.5911 95.7595 55.7264 95.7595 76.8638C95.7595 98.0012 112.785 115.136 133.788 115.136Z" stroke="black" stroke-width="1.15" stroke-linecap="round" stroke-linejoin="round"/>
<path d="M133.788 110.246C152.107 110.246 166.957 95.3004 166.957 76.8638C166.957 58.4272 152.107 43.4814 133.788 43.4814C115.469 43.4814 100.618 58.4272 100.618 76.8638C100.618 95.3004 115.469 110.246 133.788 110.246Z" stroke="black" stroke-width="1.15" stroke-linecap="round" stroke-linejoin="round"/>
<path d="M101.155 71.1902H166.493" stroke="black" stroke-width="1.15" stroke-linecap="round" stroke-linejoin="round"/>
<path d="M119.479 46.7984H148.09" stroke="black" stroke-width="1.15" stroke-linecap="round" stroke-linejoin="round"/>
<path d="M121.218 86.5999C123.762 84.2233 124.767 81.15 123.462 79.7353C122.157 78.3207 119.037 79.1005 116.493 81.4771C113.95 83.8536 112.945 86.927 114.25 88.3416C115.555 89.7562 118.675 88.9764 121.218 86.5999Z" fill="black" stroke="black" stroke-width="1.15" stroke-linecap="round" stroke-linejoin="round"/>
<path d="M139.608 109.713C139.32 109.358 139.039 108.982 138.771 108.601C134.847 102.967 134.566 96.3587 138.117 93.8511C141.668 91.3435 147.743 93.8511 151.667 99.5048C152.533 100.749 153.249 102.092 153.799 103.506" stroke="black" stroke-width="1.15" stroke-linecap="round" stroke-linejoin="round"/>
<path d="M155.061 86.4005C157.03 86.4005 158.625 84.7945 158.625 82.8135C158.625 80.8324 157.03 79.2265 155.061 79.2265C153.093 79.2265 151.497 80.8324 151.497 82.8135C151.497 84.7945 153.093 86.4005 155.061 86.4005Z" fill="black" stroke="black" stroke-width="1.15" stroke-linecap="round" stroke-linejoin="round"/>
<path d="M136.292 80.5629L140.242 92.9563" stroke="black" stroke-width="1.15" stroke-linecap="round" stroke-linejoin="round"/>
<path d="M126.869 88.7108L136.554 95.3452" stroke="black" stroke-width="1.15" stroke-linecap="round" stroke-linejoin="round"/>
<path d="M117.942 75.2709L119.348 79.4239" stroke="black" stroke-width="1.15" stroke-linecap="round" stroke-linejoin="round"/>
<path d="M112.992 78.6473L116.144 81.6749" stroke="black" stroke-width="1.15" stroke-linecap="round" stroke-linejoin="round"/>
<path d="M113.861 84.8999L109.735 83.5309" stroke="black" stroke-width="1.15" stroke-linecap="round" stroke-linejoin="round"/>
<path d="M117.262 89.053L117.942 93.4496" stroke="black" stroke-width="1.15" stroke-linecap="round" stroke-linejoin="round"/>
<path d="M121.219 86.598L123.867 89.3952" stroke="black" stroke-width="1.15" stroke-linecap="round" stroke-linejoin="round"/>
<path d="M123.913 82.9453L128.281 83.9194" stroke="black" stroke-width="1.15" stroke-linecap="round" stroke-linejoin="round"/>
<path d="M156.69 79.6214C156.69 79.6214 159.456 76.9361 157.219 74.9287" stroke="black" stroke-width="1.15" stroke-linecap="round" stroke-linejoin="round"/>
<path d="M158.384 81.1352C158.384 81.1352 160.437 78.1801 163.105 79.9374" stroke="black" stroke-width="1.15" stroke-linecap="round" stroke-linejoin="round"/>
<path d="M154.309 109.062C154.309 109.062 156.082 135.481 163.007 149.585" stroke="black" stroke-width="1.15" stroke-linecap="round" stroke-linejoin="round"/>
<path d="M162.569 108.337L159.155 105.356" stroke="black" stroke-width="1.15" stroke-linecap="round" stroke-linejoin="round"/>
<path d="M196.098 121.475L204.763 129.123L196.941 138.377L190.395 132.716" stroke="black" stroke-width="1.15" stroke-linecap="round" stroke-linejoin="round"/>
<path d="M166.977 96.1022L170.593 99.268" stroke="black" stroke-width="1.15" stroke-linecap="round" stroke-linejoin="round"/>
<path d="M161.516 109.977C161.68 109.865 170.24 99.1825 172.849 97.6621C175.066 96.3458 178.833 95.7469 179.572 101.394C182.116 100.486 186.216 100.992 186.112 106.271C189.499 106.534 191.965 107.146 192.226 111.944C194.927 112.425 198.472 115.782 195.614 122.712C192.756 129.643 188.734 133.368 189.212 137.626C189.689 141.885 193.358 151.25 193.253 150.941" stroke="black" stroke-width="1.15" stroke-linecap="round" stroke-linejoin="round"/>
<path d="M169.782 89.4876C169.782 89.4876 174.268 87.5131 176.001 90.3827C177.734 93.2523 175.622 96.688 175.622 96.688" stroke="black" stroke-width="1.15" stroke-linecap="round" stroke-linejoin="round"/>
<path d="M112.677 25.1247H175.001" stroke="black" stroke-width="1.15" stroke-linecap="round" stroke-linejoin="round"/>
<path d="M15.7529 112.885H91.986" stroke="black" stroke-width="1.15" stroke-linecap="round" stroke-linejoin="round"/>
<path d="M15.7529 120.171H91.986" stroke="black" stroke-width="1.15" stroke-linecap="round" stroke-linejoin="round"/>
<path d="M15.7529 127.457H91.986" stroke="black" stroke-width="1.15" stroke-linecap="round" stroke-linejoin="round"/>
<path d="M152.942 43.8238H175.177V35.6624H112.638V43.8238H114.358C114.358 43.8238 123.9 38.3214 134.206 38.6374C140.772 38.8432 147.195 40.6212 152.942 43.8238Z" fill="black"/>
<path d="M153.799 103.507C153.249 102.092 152.534 100.749 151.667 99.5048C147.744 93.8709 141.675 91.3369 138.117 93.8511C134.559 96.3654 134.847 102.967 138.771 108.601C139.039 108.983 139.32 109.358 139.608 109.713C144.729 108.702 149.571 106.585 153.799 103.507Z" fill="black"/>
</svg>
