<svg width="16" height="16" viewBox="0 0 16 16" fill="none" xmlns="http://www.w3.org/2000/svg">
<path fill-rule="evenodd" clip-rule="evenodd" d="M8 16C12.4183 16 16 12.4183 16 8C16 3.58172 12.4183 0 8 0C3.58172 0 0 3.58172 0 8C0 12.4183 3.58172 16 8 16ZM11.716 7.1981C12.1016 6.80266 12.0935 6.16955 11.6981 5.784C11.3027 5.39845 10.6695 5.40646 10.284 5.8019L7.12158 9.04541L5.73639 7.53773C5.36274 7.13103 4.73014 7.10424 4.32344 7.4779C3.91675 7.85155 3.88996 8.48415 4.26361 8.89084L6.36361 11.1766C6.5495 11.3789 6.81044 11.4958 7.08517 11.4999C7.35989 11.504 7.62419 11.3948 7.816 11.1981L11.716 7.1981Z" fill="#1C9C75"/>
</svg>
