<svg width="192" height="183" viewBox="0 0 192 183" fill="none" xmlns="http://www.w3.org/2000/svg">
<path d="M149.696 23C157.269 33.1344 155.892 43.8041 162.668 58.4703C169.444 73.1273 195.944 90.221 182.01 116L154.614 105.644L132.353 85.9661L126 64.0359L149.696 23Z" fill="black"/>
<path d="M131 14.0003C116.399 13.8917 94.9357 41.8509 96.041 79H120.879L131 14.0003Z" fill="black"/>
<path d="M117.867 44.8107C118.461 40.7115 116.304 36.8885 113.048 36.2719C109.792 35.6552 106.671 38.4784 106.076 42.5776C105.482 46.6769 107.639 50.4999 110.895 51.1165C114.151 51.7332 117.272 48.91 117.867 44.8107Z" fill="white"/>
<path d="M114.281 50.4192C113.277 50.9512 112.146 51.1378 111 50.8952C107.741 50.2139 105.539 46.3596 106.082 42.272C106.625 38.1844 109.698 35.422 112.957 36.1032C114.14 36.3459 115.174 37.0085 116 37.9511" stroke="black" stroke-width="0.575991" stroke-miterlimit="10" stroke-linecap="round" stroke-linejoin="round"/>
<path d="M110 42C110 42 112.508 43.0955 114 46" stroke="black" stroke-width="0.575991" stroke-miterlimit="10" stroke-linecap="round" stroke-linejoin="round"/>
<path d="M114.959 28C114.959 28 110.394 45.4909 109 54.9182L122.971 60L126 31.0818L114.959 28Z" fill="white"/>
<path d="M124.868 16C124.868 16 118.616 16.9973 114.878 29.3807L109.225 55.4312C109.225 55.4312 106.453 67.1959 118.066 69.5045L117.517 76.0425C117.517 76.0425 107.161 75.9132 102.657 76.3934C98.1531 76.8736 93 81.9802 93 81.9802L106.153 97.3372L168.481 114.199L183 116C183 116 177.914 97.0324 177.181 95.3517C176.448 93.6711 173.143 81.4539 151.923 78.0279L139.303 76.7443L139.894 54.0645L145.313 40.499L124.868 16Z" fill="white"/>
<path d="M121.907 17C116.147 21.216 113.982 30.3275 111.776 41.8961C109.57 53.4739 106.25 62.7902 113.085 67.8624C117.028 70.7941 121.229 70.152 124 69.2026" stroke="black" stroke-width="0.575991" stroke-miterlimit="10" stroke-linecap="round" stroke-linejoin="round"/>
<path d="M145 61C148.866 61 152 57.6421 152 53.5C152 49.3579 148.866 46 145 46C141.134 46 138 49.3579 138 53.5C138 57.6421 141.134 61 145 61Z" fill="white"/>
<path d="M141.83 46.6366C143.275 45.9398 144.96 45.7748 146.637 46.3432C149.635 47.3517 151.692 50.5973 151.527 54.0721C151.312 58.7571 147.504 62.0577 143.457 61.3059C142.119 61.0584 140.929 60.4074 139.988 59.4723L139.211 77.1122C151.651 78.2032 172.325 78.3591 178.082 98.6486C181.023 109 186.251 128.492 189.803 145.343C195.205 170.987 181.502 178.184 165.114 178.725C156.466 179.009 141.186 178.817 118 179" stroke="black" stroke-width="0.575991" stroke-miterlimit="10" stroke-linecap="round" stroke-linejoin="round"/>
<path d="M147 53.0001C147 53.0001 144.22 52.9536 142 55" stroke="black" stroke-width="0.575991" stroke-miterlimit="10" stroke-linecap="round" stroke-linejoin="round"/>
<path d="M117 42C117.552 42 118 41.5523 118 41C118 40.4477 117.552 40 117 40C116.448 40 116 40.4477 116 41C116 41.5523 116.448 42 117 42Z" fill="black"/>
<path d="M128 45C128.552 45 129 44.5523 129 44C129 43.4477 128.552 43 128 43C127.448 43 127 43.4477 127 44C127 44.5523 127.448 45 128 45Z" fill="black"/>
<path d="M123 40C122.874 43.3351 121.808 45.0784 120.684 46.0732C118.359 48.1387 118.854 49.8157 119.727 51" stroke="black" stroke-width="0.575991" stroke-miterlimit="10" stroke-linecap="round" stroke-linejoin="round"/>
<path d="M133.934 41.3253C134.206 40.5429 132.985 39.2949 131.207 38.5378C129.428 37.7806 127.766 37.8011 127.493 38.5834C127.221 39.3658 128.442 40.6138 130.22 41.3709C131.999 42.1281 133.662 42.1077 133.934 41.3253Z" fill="black"/>
<path d="M121.092 36.0934C121.158 35.2677 119.875 34.4665 118.227 34.304C116.578 34.1415 115.187 34.6791 115.121 35.5049C115.054 36.3306 116.337 37.1318 117.986 37.2943C119.634 37.4568 121.025 36.9192 121.092 36.0934Z" fill="black"/>
<path d="M117 52.726C118.46 54.2796 122.687 54.8095 125 52" stroke="black" stroke-width="0.575991" stroke-miterlimit="10" stroke-linecap="round" stroke-linejoin="round"/>
<path d="M118 69L117.57 75.1408C117.57 75.1408 111.204 75.1316 104.771 75.297C101.852 75.3706 95.3455 76.1612 88.483 87.073C81.6205 97.9848 80 101 80 101" stroke="black" stroke-width="0.575991" stroke-miterlimit="10" stroke-linecap="round" stroke-linejoin="round"/>
<path d="M114 158C114 158 152.798 153.35 164 150.884C164 150.884 154.714 119.992 152.715 111" stroke="black" stroke-width="0.575991" stroke-miterlimit="10" stroke-linecap="round" stroke-linejoin="round"/>
<path d="M172 154L164 152" stroke="black" stroke-width="0.575991" stroke-miterlimit="10" stroke-linecap="round" stroke-linejoin="round"/>
<path d="M159 132.561C159 132.561 172.375 135.738 186 125" stroke="black" stroke-width="0.575991" stroke-miterlimit="10" stroke-linecap="round" stroke-linejoin="round"/>
<path d="M98 94L94 102" stroke="black" stroke-width="0.575991" stroke-miterlimit="10" stroke-linecap="round" stroke-linejoin="round"/>
<path d="M160 138L155 153" stroke="black" stroke-width="0.575991" stroke-miterlimit="10" stroke-linecap="round" stroke-linejoin="round"/>
<path d="M118.021 75C117.385 85.254 131.289 85.8404 139 75.6598" stroke="black" stroke-width="0.575991" stroke-miterlimit="10" stroke-linecap="round" stroke-linejoin="round"/>
<path d="M117.938 178.076L159 178V180.091C159 181.141 158.256 182 157.346 182H110" stroke="black" stroke-width="0.575991" stroke-miterlimit="10" stroke-linecap="round" stroke-linejoin="round"/>
<path d="M109.692 182H17.5674C16.3519 182 15.3113 181.064 15.0699 179.776L1.0506 104.336C0.734254 102.613 1.94138 101 3.5481 101H101.242C102.632 101 103.831 102.066 104.106 103.558L118 178.2L114.087 181.277" fill="white"/>
<path d="M109.692 182H17.5674C16.3519 182 15.3113 181.064 15.0699 179.776L1.0506 104.336C0.734254 102.613 1.94138 101 3.5481 101H101.242C102.632 101 103.831 102.066 104.106 103.558L118 178.2L114.087 181.277" stroke="black" stroke-width="0.575991" stroke-miterlimit="10" stroke-linecap="round" stroke-linejoin="round"/>
<path d="M98 101C99.4005 101 100.608 102.066 100.885 103.558L114.949 178.664C115.268 180.388 114.052 182 112.433 182H108.751" stroke="black" stroke-width="0.575991" stroke-miterlimit="10" stroke-linecap="round" stroke-linejoin="round"/>
<path d="M121 17.4266C125.129 13.1837 138.785 9.29443 148.571 19.3396C158.047 29.0584 152.725 44.9148 150.381 47C150.381 47 147.336 42.7843 141.772 45.1777C134.08 35.0601 126.589 35.0057 121 17.4266Z" fill="black"/>
<path d="M153.5 25C159.851 25 165 19.4036 165 12.5C165 5.59644 159.851 0 153.5 0C147.149 0 142 5.59644 142 12.5C142 19.4036 147.149 25 153.5 25Z" fill="black"/>
<path d="M56.2477 147.912C58.4033 147.429 59.626 144.175 58.9785 140.644C58.3311 137.113 56.0588 134.642 53.9031 135.125C51.7475 135.608 50.5248 138.862 51.1723 142.393C51.8197 145.924 54.092 148.395 56.2477 147.912Z" fill="black"/>
<path d="M99.0584 101H101.512L103.248 102.529L104.709 109.377L117.478 177.811L118.346 178.191L159 178.117V180.351C159 181.259 158.332 182 157.514 182H112.804C112.804 182 114.891 181.203 114.207 177.552C113.531 173.91 100.419 103.558 100.419 103.558L99.5759 101.89L99 101.315L99.0584 101Z" fill="black"/>
</svg>
