<svg width="33" height="32" viewBox="0 0 33 32" fill="none" xmlns="http://www.w3.org/2000/svg">
<g clip-path="url(#clip0_855_9425)">
<path fill-rule="evenodd" clip-rule="evenodd" d="M26.8694 5.90662C27.1989 5.76794 27.5596 5.72011 27.9138 5.76811C28.2681 5.81611 28.603 5.95818 28.8837 6.17953C29.1644 6.40089 29.3807 6.69344 29.5099 7.02673C29.6392 7.36002 29.6768 7.72187 29.6188 8.07462L26.5948 26.4173C26.3014 28.1866 24.3601 29.2013 22.7374 28.32C21.3801 27.5826 19.3641 26.4466 17.5508 25.2613C16.6441 24.668 13.8668 22.768 14.2081 21.416C14.5014 20.26 19.1681 15.916 21.8348 13.3333C22.8814 12.3186 22.4041 11.7333 21.1681 12.6666C18.0974 14.984 13.1708 18.508 11.5414 19.5C10.1041 20.3746 9.35477 20.524 8.45877 20.3746C6.82411 20.1026 5.30811 19.6813 4.07077 19.168C2.39877 18.4746 2.48011 16.176 4.06944 15.5066L26.8694 5.90662Z" fill="black"/>
</g>
<defs>
<clipPath id="clip0_855_9425">
<rect width="32" height="32" fill="white" transform="translate(0.5)"/>
</clipPath>
</defs>
</svg>
