<svg width="22" height="20" viewBox="0 0 22 20" fill="none" xmlns="http://www.w3.org/2000/svg">
<path fill-rule="evenodd" clip-rule="evenodd" d="M5.96205 11.831L1.08096 10.57C0.58635 10.4386 0.531014 9.80217 0.995438 9.58638L19.782 0.586349C20.1315 0.438969 20.5813 0.749187 20.5566 1.15948L18.4786 17.5505C18.3939 17.9661 17.9295 18.1819 17.6097 17.9768L12.5877 15.0957C12.2679 14.8906 11.9082 14.9223 11.6287 15.1801L9.17243 17.4952C8.89789 17.8109 8.40328 17.6796 8.25322 17.343L5.96205 11.831ZM16.0783 4.52718L7.38544 10.8312C7.0409 11.0364 6.89629 11.4573 7.05138 11.8518L8.36715 15.1758C8.44721 15.4019 8.80182 15.3124 8.84164 15.0757L8.92042 13.2031C8.95017 12.8506 9.09981 12.4876 9.31945 12.2351L16.2782 4.74278C16.448 4.61123 16.248 4.39563 16.0783 4.52718Z" fill="#1A1B22"/>
</svg>
