<svg width="33" height="32" viewBox="0 0 33 32" fill="none" xmlns="http://www.w3.org/2000/svg">
<path fill-rule="evenodd" clip-rule="evenodd" d="M16.1294 25.2447H17.8857C17.8857 25.2447 18.415 25.1805 18.6851 24.8569C18.9417 24.5551 18.9417 23.9967 18.9417 23.9967C18.9417 23.9967 18.9038 21.3656 20.0039 20.9791C21.088 20.5955 22.463 23.5188 23.9284 24.6425C25.048 25.5014 25.8901 25.317 25.8901 25.317L29.8147 25.2569C29.8147 25.2569 31.8705 25.1136 30.8988 23.3099C30.8242 23.1665 30.3476 21.9786 28.0009 19.5414C25.5418 17.0004 25.8718 17.41 28.8271 13.0052C30.6226 10.3222 31.3571 8.68234 31.1188 7.98598C30.9159 7.33059 29.5788 7.49307 29.5788 7.49307L25.1763 7.5354C25.1763 7.5354 24.8463 7.49307 24.608 7.65829C24.3697 7.82077 24.2242 8.19216 24.2242 8.19216C24.2242 8.19216 23.5251 10.2799 22.5913 12.0426C20.6076 15.7688 19.8193 15.9736 19.5076 15.7278C18.7694 15.1939 18.9588 13.5705 18.9588 12.4072C18.9588 8.80113 19.4526 7.2869 18.0043 6.89776C17.5276 6.7735 17.1719 6.69295 15.9448 6.6711C14.3682 6.65198 13.0384 6.68475 12.2843 7.09574C11.7893 7.37292 11.4042 7.98598 11.6255 8.01739C11.9188 8.05835 12.5776 8.21673 12.9259 8.75061C13.3843 9.4415 13.3647 10.9844 13.3647 10.9844C13.3647 10.9844 13.6226 15.239 12.7609 15.7674C12.1559 16.1251 11.3492 15.3851 9.58924 12.0044C8.6909 10.284 8.01134 8.35874 8.01134 8.35874C8.01134 8.35874 7.88301 8.00919 7.64589 7.80438C7.36845 7.57909 6.96511 7.49717 6.96511 7.49717L2.76676 7.53813C2.76676 7.53813 2.14342 7.55998 1.92464 7.86583C1.72175 8.13208 1.90508 8.70555 1.90508 8.70555C1.90508 8.70555 5.18799 17.2898 8.9109 21.6127C12.3209 25.5751 16.1905 25.3198 16.1905 25.3198L16.1294 25.2447Z" fill="black"/>
</svg>
