<svg width="24" height="16" viewBox="0 0 24 16" fill="none" xmlns="http://www.w3.org/2000/svg">
<path fill-rule="evenodd" clip-rule="evenodd" d="M11.7252 14.9333H13.0425C13.0425 14.9333 13.4394 14.8851 13.642 14.6424C13.8345 14.4161 13.8345 13.9973 13.8345 13.9973C13.8345 13.9973 13.8061 12.0239 14.6311 11.7341C15.4442 11.4464 16.4754 13.6389 17.5745 14.4816C18.4142 15.1258 19.0458 14.9875 19.0458 14.9875L21.9892 14.9425C21.9892 14.9425 23.531 14.8349 22.8023 13.4822C22.7464 13.3746 22.3889 12.4837 20.6288 10.6558C18.7845 8.75003 19.032 9.05725 21.2485 5.75366C22.5951 3.74139 23.146 2.51151 22.9673 1.98924C22.8151 1.4977 21.8123 1.61956 21.8123 1.61956L18.5104 1.65131C18.5104 1.65131 18.2629 1.61956 18.0842 1.74347C17.9054 1.86533 17.7963 2.14387 17.7963 2.14387C17.7963 2.14387 17.272 3.70965 16.5717 5.0317C15.0839 7.82634 14.4926 7.97994 14.2589 7.79562C13.7052 7.39521 13.8473 6.17761 13.8473 5.30512C13.8473 2.6006 14.2176 1.46493 13.1314 1.17307C12.7739 1.07988 12.5071 1.01947 11.5868 1.00308C10.4043 0.988744 9.40695 1.01332 8.84136 1.32156C8.47011 1.52944 8.18136 1.98924 8.34728 2.0128C8.56728 2.04352 9.06137 2.16231 9.32262 2.56271C9.66637 3.08088 9.6517 4.23806 9.6517 4.23806C9.6517 4.23806 9.84512 7.429 9.19887 7.82531C8.74511 8.09361 8.14011 7.53858 6.8201 5.00303C6.14635 3.71272 5.63668 2.26881 5.63668 2.26881C5.63668 2.26881 5.54043 2.00665 5.36259 1.85304C5.15451 1.68408 4.85201 1.62263 4.85201 1.62263L1.70324 1.65335C1.70324 1.65335 1.23574 1.66974 1.07165 1.89913C0.919486 2.09882 1.05699 2.52892 1.05699 2.52892C1.05699 2.52892 3.51917 8.96713 6.31135 12.2093C8.86886 15.1811 11.771 14.9896 11.771 14.9896L11.7252 14.9333Z" fill="#1A1B22" stroke="black"/>
</svg>
