<svg width="33" height="32" viewBox="0 0 33 32" fill="none" xmlns="http://www.w3.org/2000/svg">
<path d="M3.17186 29.3333L4.97452 22.7093C3.78671 20.6731 3.16265 18.3573 3.16652 16C3.16652 8.63596 9.13586 2.66663 16.4999 2.66663C23.8639 2.66663 29.8332 8.63596 29.8332 16C29.8332 23.364 23.8639 29.3333 16.4999 29.3333C14.1436 29.3371 11.8287 28.7135 9.79319 27.5266L3.17186 29.3333ZM11.6879 9.74396C11.5157 9.75465 11.3474 9.8 11.1932 9.87729C11.0486 9.9592 10.9165 10.0616 10.8012 10.1813C10.6412 10.332 10.5505 10.4626 10.4532 10.5893C9.9604 11.2306 9.69533 12.0179 9.69986 12.8266C9.70252 13.48 9.87319 14.116 10.1399 14.7106C10.6852 15.9133 11.5825 17.1866 12.7679 18.3666C13.0532 18.6506 13.3319 18.936 13.6319 19.2013C15.103 20.4966 16.8562 21.4307 18.7519 21.9293L19.5105 22.0453C19.7572 22.0586 20.0039 22.04 20.2519 22.028C20.6402 22.0079 21.0193 21.9028 21.3625 21.72C21.5371 21.63 21.7075 21.5321 21.8732 21.4266C21.8732 21.4266 21.9305 21.3893 22.0399 21.3066C22.2199 21.1733 22.3305 21.0786 22.4799 20.9226C22.5905 20.808 22.6865 20.6733 22.7599 20.52C22.8639 20.3026 22.9679 19.888 23.0105 19.5426C23.0425 19.2786 23.0332 19.1346 23.0292 19.0453C23.0239 18.9026 22.9052 18.7546 22.7759 18.692L21.9999 18.344C21.9999 18.344 20.8399 17.8386 20.1319 17.516C20.0572 17.4834 19.9772 17.4649 19.8959 17.4613C19.8046 17.4519 19.7125 17.4622 19.6255 17.4914C19.5386 17.5206 19.4589 17.5681 19.3919 17.6306V17.628C19.3852 17.628 19.2959 17.704 18.3319 18.872C18.2765 18.9463 18.2003 19.0025 18.1129 19.0334C18.0255 19.0642 17.9309 19.0684 17.8412 19.0453C17.7543 19.0221 17.6692 18.9927 17.5865 18.9573C17.4212 18.888 17.3639 18.8613 17.2505 18.812L17.2439 18.8093C16.4811 18.4763 15.7748 18.0264 15.1505 17.476C14.9825 17.3293 14.8265 17.1693 14.6665 17.0146C14.142 16.5123 13.6848 15.944 13.3065 15.324L13.2279 15.1973C13.1714 15.1122 13.1257 15.0204 13.0919 14.924C13.0412 14.728 13.1732 14.5706 13.1732 14.5706C13.1732 14.5706 13.4972 14.216 13.6479 14.024C13.7733 13.8644 13.8904 13.6984 13.9985 13.5266C14.1559 13.2733 14.2052 13.0133 14.1225 12.812C13.7492 11.9 13.3625 10.992 12.9652 10.0906C12.8865 9.91196 12.6532 9.78396 12.4412 9.75863C12.3692 9.75063 12.2972 9.74263 12.2252 9.73729C12.0461 9.7284 11.8667 9.73018 11.6879 9.74263V9.74396Z" fill="black"/>
</svg>
